<svg xmlns="http://www.w3.org/2000/svg" width="16.721" height="15.965" viewBox="0 0 16.721 15.965">
  <g id="star" transform="translate(0 -11.011)">
    <path id="Path_664" data-name="Path 664" d="M16.7,17.044a.466.466,0,0,0-.374-.316l-5.216-.741L8.76,11.268a.465.465,0,0,0-.415-.257h0a.462.462,0,0,0-.415.261L5.613,16,.4,16.78a.466.466,0,0,0-.374.316.458.458,0,0,0,.12.474l3.785,3.669-.875,5.2a.466.466,0,0,0,.456.542.44.44,0,0,0,.216-.055l4.657-2.468,4.671,2.44a.474.474,0,0,0,.213.051h0a.466.466,0,0,0,.463-.463.362.362,0,0,0-.014-.106l-.9-5.165,3.761-3.689A.454.454,0,0,0,16.7,17.044ZM12,20.72a.458.458,0,0,0-.13.412l.786,4.506L8.6,23.52a.469.469,0,0,0-.432,0L4.12,25.662l.758-4.513a.463.463,0,0,0-.134-.408L1.464,17.556l4.527-.673a.46.46,0,0,0,.347-.254l2.011-4.108,2.039,4.1a.471.471,0,0,0,.35.254l4.53.645Z" transform="translate(0)"/>
  </g>
</svg>
