<svg xmlns="http://www.w3.org/2000/svg" width="48" height="48.001" viewBox="0 0 48 48.001"><defs><style>.a{fill:#e17852;}.b{fill:#b7ccde;}.c{fill:#59c080;stroke:#59c080;}.d{fill:#27308c;}</style></defs><g transform="translate(0.834 0)"><circle class="a" cx="16.5" cy="16.5" r="16.5" transform="translate(14.166 15)"/><path class="b" d="M59.535,30.472l4.05,4.455,5.139-.956,5.384.956,4.133-3.6,5.053-2.362.781-5.507,2.893-4.575-2.394-5.684-1.28-5.3L78.24,5.3l-3.5-4.05-5.507,1.19-4.749-1.19L60.24,5.3,55.1,7.5l-.782,5.7L51.51,17.471l2.814,5.536L55.1,28.96Z" transform="translate(-49.343 -1.246)"/><circle class="b" cx="12.721" cy="12.721" r="12.721" transform="translate(6.838 5.088)"/><path class="c" d="M67.182,20.812c.353-1.313,4.268-1.252,4.268-1.252s1.31-3.813,2.515-3.813,2.821,4.095,2.821,4.095,3.9-.272,4.236.97-2.888,4-2.888,4,1.249,4.032.207,4.731-4.376-1.936-4.376-1.936-3.245,2.239-4.227,1.54.3-4.335.3-4.335S66.829,22.125,67.182,20.812Z" transform="translate(-53.88 -5.747)"/><path class="b" d="M0,5.259,7.248,16.305l3.59-3.954,4.778-1.138L9.267,0Z" transform="matrix(0.485, 0.875, -0.875, 0.485, 13.428, 24.877)"/><path class="b" d="M82.064,49.746l7,9.466,3.486-3.128,5.3-1.927-7.659-11.11Z" transform="translate(-60.023 -15.153)"/><path class="d" d="M83.077,31.635c-.193-.31-.172.029-.49.216s-.855.154-.662.464L85.9,38.7a.328.328,0,0,1,.018.324.343.343,0,0,1-.266.195l-3.769.574a1.709,1.709,0,0,0-1.054.588l-2.464,2.936a.352.352,0,0,1-.3.126.348.348,0,0,1-.278-.165l-5.62-9.025a4.656,4.656,0,0,0,2.547.059,5.954,5.954,0,0,0,2.724-2.343,7.524,7.524,0,0,1,1.422-1.54,6.018,6.018,0,0,1,1.463-.684l1.6,2.572c.193.31,1.345-.371,1.152-.68l-1.459-2.342a4.83,4.83,0,0,0,2.313-1.507,5.692,5.692,0,0,0,.781-3.4,7.48,7.48,0,0,1,.235-2.11,7.268,7.268,0,0,1,1.046-1.758,5.8,5.8,0,0,0,1.458-3.282,5.8,5.8,0,0,0-1.458-3.282,7.266,7.266,0,0,1-1.046-1.758,7.48,7.48,0,0,1-.235-2.11,5.692,5.692,0,0,0-.781-3.4,6.031,6.031,0,0,0-3.1-1.784,7.854,7.854,0,0,1-1.968-.857A7.529,7.529,0,0,1,77.439,2.5,5.955,5.955,0,0,0,74.715.155a6.079,6.079,0,0,0-3.521.329,8.168,8.168,0,0,1-2.177.441A8.17,8.17,0,0,1,66.841.485,6.077,6.077,0,0,0,63.32.155,5.955,5.955,0,0,0,60.6,2.5a7.526,7.526,0,0,1-1.422,1.54,7.855,7.855,0,0,1-1.968.857A6.031,6.031,0,0,0,54.1,6.68a5.692,5.692,0,0,0-.781,3.4,7.48,7.48,0,0,1-.235,2.11,7.268,7.268,0,0,1-1.046,1.758,5.8,5.8,0,0,0-1.458,3.282,5.8,5.8,0,0,0,1.458,3.282,7.261,7.261,0,0,1,1.046,1.758,7.48,7.48,0,0,1,.235,2.11,5.692,5.692,0,0,0,.781,3.4,4.83,4.83,0,0,0,2.313,1.507l-5.433,8.725a1.616,1.616,0,0,0-.088,1.557,1.694,1.694,0,0,0,1.28.938l3.769.574a.355.355,0,0,1,.219.122l2.464,2.936a1.722,1.722,0,0,0,1.317.608q.059,0,.119,0a1.71,1.71,0,0,0,1.335-.793l6.373-10.234a4.352,4.352,0,0,1,2.492,0l6.373,10.234a1.71,1.71,0,0,0,1.335.793q.06,0,.119,0a1.722,1.722,0,0,0,1.317-.608l2.464-2.936a.355.355,0,0,1,.219-.122l3.769-.574a1.694,1.694,0,0,0,1.28-.938,1.616,1.616,0,0,0-.088-1.557ZM60.246,43.275a.359.359,0,0,1-.576.039l-2.464-2.936a1.71,1.71,0,0,0-1.054-.588l-3.769-.574a.343.343,0,0,1-.266-.195.328.328,0,0,1,.018-.324l5.577-8.955a6.018,6.018,0,0,1,1.463.684,7.529,7.529,0,0,1,1.422,1.54A5.955,5.955,0,0,0,63.32,34.31a3.448,3.448,0,0,0,1.047.154,6.286,6.286,0,0,0,1.5-.213Zm8.771-11.048a9.279,9.279,0,0,0-2.565.5,5.076,5.076,0,0,1-2.717.338,4.957,4.957,0,0,1-2.065-1.886,8.571,8.571,0,0,0-1.7-1.811,8.925,8.925,0,0,0-2.318-1.036,5.045,5.045,0,0,1-2.456-1.316,4.752,4.752,0,0,1-.524-2.66,8.495,8.495,0,0,0-.3-2.486,8.274,8.274,0,0,0-1.224-2.106,4.838,4.838,0,0,1-1.214-2.53,4.838,4.838,0,0,1,1.214-2.53A8.275,8.275,0,0,0,54.368,12.6a8.5,8.5,0,0,0,.3-2.486,4.75,4.75,0,0,1,.524-2.66,5.045,5.045,0,0,1,2.456-1.316A8.928,8.928,0,0,0,59.967,5.1a8.575,8.575,0,0,0,1.7-1.811A4.957,4.957,0,0,1,63.736,1.4a2.091,2.091,0,0,1,.633-.089,7.967,7.967,0,0,1,2.084.427,9.282,9.282,0,0,0,2.565.5,9.279,9.279,0,0,0,2.565-.5A5.076,5.076,0,0,1,74.3,1.4a4.956,4.956,0,0,1,2.065,1.886,8.571,8.571,0,0,0,1.7,1.811,8.926,8.926,0,0,0,2.318,1.036,5.046,5.046,0,0,1,2.456,1.316,4.751,4.751,0,0,1,.523,2.66,8.494,8.494,0,0,0,.3,2.486A8.276,8.276,0,0,0,84.89,14.7a4.838,4.838,0,0,1,1.214,2.53,4.838,4.838,0,0,1-1.214,2.53,8.275,8.275,0,0,0-1.224,2.105,8.5,8.5,0,0,0-.3,2.486,4.75,4.75,0,0,1-.524,2.66,5.045,5.045,0,0,1-2.456,1.316,8.928,8.928,0,0,0-2.318,1.036,8.576,8.576,0,0,0-1.7,1.811A4.956,4.956,0,0,1,74.3,33.062a5.075,5.075,0,0,1-2.717-.338A9.271,9.271,0,0,0,69.017,32.227Z" transform="translate(-48.889 -0.001)"/><path class="d" d="M136.11,64.182a13.107,13.107,0,1,0-25.605,3.96.674.674,0,1,0,1.284-.407,11.769,11.769,0,1,1,1.234,2.67.674.674,0,1,0-1.142.714,13.108,13.108,0,0,0,24.23-6.937Z" transform="translate(-102.731 -47.076)"/><path class="d" d="M180.267,114.352a2.019,2.019,0,0,0-1.64-1.383l-3.247-.472-1.452-2.942a2.032,2.032,0,0,0-3.644,0l-1.452,2.942-3.247.472a2.032,2.032,0,0,0-1.126,3.465l2.349,2.29-.555,3.233A2.029,2.029,0,0,0,169.2,124.1l2.9-1.527,2.9,1.527a2.032,2.032,0,0,0,2.948-2.142l-.555-3.233,2.349-2.29a2.019,2.019,0,0,0,.514-2.083Zm-1.454,1.118-2.356,2.3a1.329,1.329,0,0,0-.382,1.177l.556,3.243a.684.684,0,0,1-.993.722l-2.912-1.531a1.329,1.329,0,0,0-1.237,0l-2.912,1.531a.684.684,0,0,1-.993-.722l.556-3.243a1.33,1.33,0,0,0-.382-1.177l-2.356-2.3a.684.684,0,0,1,.379-1.167l3.256-.473a1.33,1.33,0,0,0,1-.727l1.456-2.95a.684.684,0,0,1,1.228,0l1.456,2.95a1.33,1.33,0,0,0,1,.727l3.256.473a.684.684,0,0,1,.379,1.167Z" transform="translate(-151.679 -99.423)"/></g></svg>