<svg xmlns="http://www.w3.org/2000/svg" width="48.741" height="48" viewBox="0 0 48.741 48"><defs><style>.a{fill:#e17852;}.b{fill:#59c080;}.c{fill:none;stroke:#27308c;stroke-linejoin:round;stroke-width:1.5px;}.d{fill:#b7ccde;}.e,.g{fill:#27308c;}.f,.g{stroke:none;}</style></defs><g transform="translate(-162.399 -168)"><g transform="translate(-160 30)"><g transform="translate(323.14 138)"><circle class="a" cx="16.5" cy="16.5" r="16.5" transform="translate(14.355 15)"/><g transform="translate(0 0)"><path class="b" d="M1015.3,595.832l12.137,12.836,5.21-3.893,9.258,10.271-3.017,3.1,10.127,2.816.677-11.055-3.78,2.124-12.23-14.277-5.527,4.048-9.372-9.671Z" transform="translate(-1014.819 -579.351)"/><g transform="translate(0 12.329)"><path class="c" d="M13111.514-9794.343s-4.856-5.94-5.146-6l-4.622,3.606-9.839-9.32-3.8,3.835" transform="translate(-13088.102 9806.052)"/></g><g transform="translate(19.211)"><g class="d"><path class="f" d="M 25.07404899597168 20.60937690734863 L 3.714678525924683 20.60937690734863 C 2.079948663711548 20.60937690734863 0.7499986290931702 19.27942657470703 0.7499986290931702 17.64469718933105 L 0.7499986290931702 3.714677572250366 C 0.7499986290931702 2.079947471618652 2.079948663711548 0.7499974966049194 3.714678525924683 0.7499974966049194 L 25.07404899597168 0.7499974966049194 C 26.70876884460449 0.7499974966049194 28.03871917724609 2.079947471618652 28.03871917724609 3.714677572250366 L 28.03871917724609 17.64469718933105 C 28.03871917724609 19.27942657470703 26.70876884460449 20.60937690734863 25.07404899597168 20.60937690734863 Z"/><path class="g" d="M 3.714668273925781 1.499998092651367 C 2.493497848510742 1.499998092651367 1.499998092651367 2.493497848510742 1.499998092651367 3.714677810668945 L 1.499998092651367 17.64469718933105 C 1.499998092651367 18.86587715148926 2.493497848510742 19.85937690734863 3.714668273925781 19.85937690734863 L 25.07404899597168 19.85937690734863 C 26.29521942138672 19.85937690734863 27.28871917724609 18.86587715148926 27.28871917724609 17.64469718933105 L 27.28871917724609 3.714677810668945 C 27.28871917724609 2.493497848510742 26.29521942138672 1.499998092651367 25.07404899597168 1.499998092651367 L 3.714668273925781 1.499998092651367 M 3.714668273925781 -1.9073486328125e-06 L 25.07404899597168 -1.9073486328125e-06 C 27.1255989074707 -1.9073486328125e-06 28.78871917724609 1.663118362426758 28.78871917724609 3.714677810668945 L 28.78871917724609 17.64469718933105 C 28.78871917724609 19.69625663757324 27.1255989074707 21.35937690734863 25.07404899597168 21.35937690734863 L 3.714668273925781 21.35937690734863 C 1.663118362426758 21.35937690734863 -1.9073486328125e-06 19.69625663757324 -1.9073486328125e-06 17.64469718933105 L -1.9073486328125e-06 3.714677810668945 C -1.9073486328125e-06 1.663118362426758 1.663118362426758 -1.9073486328125e-06 3.714668273925781 -1.9073486328125e-06 Z"/></g><g transform="translate(7 6)"><path class="e" d="M47,7.046Z" transform="translate(-43.908 -5.447)"/><path class="a" d="M43,5h1.48V6.48H43Z" transform="translate(-43 -5)"/><path class="e" d="M47,5H59.277V6.48H47Z" transform="translate(-43.75 -5)"/><path class="e" d="M47,5H59.277V6.48H47Z" transform="translate(-43.75 -1)"/><path class="e" d="M47,5H59.277V6.48H47Z" transform="translate(-43.75 3)"/><path class="a" d="M43,5h1.48V6.48H43Z" transform="translate(-43 -1)"/><path class="a" d="M43,5h1.48V6.48H43Z" transform="translate(-43 3)"/></g></g><path class="c" d="M13114.936-9795.151h0l5.729,6.965s4.111-3.2,4.408-3.014-.156,11.439-.419,11.626-11.142-2.414-11.412-2.605,4.245-3.083,4.245-3.083-9.236-10.74-9.536-10.8-4.944,4-4.944,4-9.093-9.173-13.069-12.95h0" transform="translate(-13089.929 9821.185)"/></g></g></g></g></svg>